<svg id="Layer_1" data-name="Layer 1" xmlns="http://www.w3.org/2000/svg" xmlns:xlink="http://www.w3.org/1999/xlink" viewBox="0 0 226 111.43396"><defs><style>.cls-1{fill:url(#linear-gradient);}.cls-2{font-size:22.46587px;font-family:ClashGrotesk-Medium, Clash Grotesk;font-weight:500;}.cls-2,.cls-5{fill:#e3dacf;}.cls-3{letter-spacing:-0.008em;}.cls-4{letter-spacing:0.002em;}.cls-5{font-size:22.96512px;font-family:ClashGrotesk-Regular, Clash Grotesk;}.cls-6{letter-spacing:-0.00298em;}.cls-7{letter-spacing:-0.00502em;}.cls-8{letter-spacing:-0.00098em;}.cls-9{letter-spacing:-0.002em;}.cls-10{fill:url(#linear-gradient-2);}</style><linearGradient id="linear-gradient" x1="47.37797" y1="-7.24337" x2="169.30872" y2="114.68738" gradientUnits="userSpaceOnUse"><stop offset="0" stop-color="#0042a3"/><stop offset="1" stop-color="#e3dacf"/></linearGradient><linearGradient id="linear-gradient-2" x1="106.42467" y1="78.21184" x2="128.69856" y2="51.66685" xlink:href="#linear-gradient"/></defs><title>logo</title><path class="cls-1" d="M225.16981,25.66416l-6.29529,6.29529H218.74v.13448l-4.54662,4.54662a15.4927,15.4927,0,0,0-10.98985-4.54662v-.13448H125.548a15.53453,15.53453,0,0,0-15.53647,15.53647v26.903c-.10764-.06724-.22865-.1211-.33629-.18834a28.83645,28.83645,0,0,1,.33629,4.34481V78.69a30.89362,30.89362,0,0,1-4.07576,15.402,31.2301,31.2301,0,0,1-11.46071,11.501,30.90036,30.90036,0,0,1-12.8731,4.03546H29.70605a30.71974,30.71974,0,0,1-12.88648-4.04892,28.68967,28.68967,0,0,1-3.067-2.01772A31.02794,31.02794,0,0,1,1.283,78.69V31.95945A31.08951,31.08951,0,0,1,32.356.8999h46.596a31.08424,31.08424,0,0,1,24.939,12.53681l-9.416,9.41605-1.81592,1.80253A15.52882,15.52882,0,0,0,78.95206,16.4229H32.356A15.5346,15.5346,0,0,0,16.81957,31.95945V78.69a15.56463,15.56463,0,0,0,8.13814,13.66669,15.72779,15.72779,0,0,0,5.47477,1.7353,15.3475,15.3475,0,0,0,3.84711,0H77.0285a15.3475,15.3475,0,0,0,3.84711,0A15.516,15.516,0,0,0,94.47506,78.69V51.77348a2.53069,2.53069,0,0,1,.32282.18835,30.48788,30.48788,0,0,1-.32282-4.46591,31.08778,31.08778,0,0,1,13.78779-25.81344c.56494-.39006,1.15681-.75328,1.74868-1.08957a30.87707,30.87707,0,0,1,15.53647-4.17h77.65557v.13456A31.00455,31.00455,0,0,1,218.74,20.71393,30.33866,30.33866,0,0,1,225.16981,25.66416Z"/><text class="cls-2" transform="translate(124.49399 61.6704)"><tspan class="cls-3">S</tspan><tspan class="cls-4" x="13.38965" y="0">IN</tspan><tspan x="33.42871" y="0">E</tspan></text><text class="cls-5" transform="translate(124.49399 82.93603)">O<tspan class="cls-6" x="15.77734" y="0">u</tspan><tspan class="cls-7" x="28.24805" y="0">s</tspan><tspan class="cls-8" x="39.24805" y="0">s</tspan><tspan x="50.34082" y="0">a</tspan><tspan class="cls-9" x="61.8457" y="0">m</tspan><tspan x="81.96289" y="0">a</tspan></text><rect class="cls-10" x="114.56269" y="44.83823" width="5.99784" height="40.20222"/></svg>